<?xml version="1.0" encoding="utf-8"?>
<!-- Generator: Adobe Illustrator 24.0.2, SVG Export Plug-In . SVG Version: 6.00 Build 0)  -->
<svg version="1.1" id="Layer_1" xmlns="http://www.w3.org/2000/svg" xmlns:xlink="http://www.w3.org/1999/xlink" x="0px" y="0px"
	 viewBox="0 0 89.1 89.1" style="enable-background:new 0 0 89.1 89.1;" xml:space="preserve">
<style type="text/css">
	.st0{fill:#005C3C;}
	.st1{fill:#FFFFFF;}
</style>
<title>brand owner</title>
<g id="Layer_2_1_">
	<g id="blogi">
		<path class="st0" d="M44.6,88.4c24.2,0,43.8-19.6,43.8-43.8S68.8,0.7,44.6,0.7S0.7,20.3,0.7,44.6C0.7,68.8,20.3,88.4,44.6,88.4
			L44.6,88.4"/>
		<path class="st1" d="M30.9,54.1c3.5,0,6.4-2.9,6.4-6.4h-3.6c0,1.6-1.3,2.8-2.8,2.8c-1.6,0-2.8-1.3-2.8-2.8h-3.6
			C24.5,51.2,27.4,54.1,30.9,54.1"/>
		<path class="st1" d="M58.1,54.1c3.5,0,6.4-2.9,6.4-6.4h-3.6c0,1.6-1.3,2.8-2.8,2.8c-1.6,0-2.8-1.3-2.8-2.8l0,0h-3.6
			C51.7,51.2,54.6,54.1,58.1,54.1"/>
		<path class="st1" d="M72.9,47.7c-0.1,8.1-6.7,14.7-14.8,14.7c-4.4,0-8.6-2-11.4-5.4c0.5-0.8,0.9-1.6,1.2-2.4
			c3.8,5.7,11.6,7.2,17.2,3.3c3.4-2.3,5.5-6.2,5.5-10.3h-3.5c0,4.9-4,8.9-8.9,8.9s-8.9-4-8.9-8.9h-3.6l0,0c0,2-0.4,4-1.2,5.8
			c-0.8-1.8-1.2-3.8-1.2-5.8l0,0h-3.5c0,4.9-4,8.9-8.9,8.9s-8.9-4-8.9-8.9h-3.5c0,6.9,5.6,12.4,12.4,12.4c4.1,0,8-2,10.3-5.5
			c0.3,0.8,0.7,1.6,1.2,2.4c-2.8,3.4-7,5.4-11.4,5.4c-8.1,0-14.8-6.6-14.8-14.7h-3.5c0,10.1,8.3,18.3,18.4,18.3c5.1,0,10-2.2,13.5-6
			c6.8,7.5,18.4,8,25.9,1.2c3.8-3.5,6-8.3,6-13.5H72.9z"/>
		<path class="st1" d="M23.1,39.9c-0.2,0.7-0.3,1.2-0.5,2c-0.1-0.6-0.2-1.1-0.4-1.7l-1.3-5h-2.4l-1.2,4.7c-0.2,0.7-0.4,1.4-0.5,2
			c-0.1-0.7-0.3-1.3-0.5-2l-1.1-4.7h-2.7l2.9,10.4h2.3l1.9-7l1.7,7h2.3l2.9-10.4h-2.4L23.1,39.9z"/>
		<path class="st1" d="M34.5,40.3c0,2.1-1,3.4-2.5,3.4s-2.5-1.3-2.5-3.4s0.9-3.4,2.5-3.4S34.5,38.2,34.5,40.3 M31.9,34.9
			c-2.4,0-4.9,1.7-4.9,5.4s2.5,5.4,4.9,5.4s4.9-1.7,4.9-5.4S34.4,34.9,31.9,34.9"/>
		<path class="st1" d="M45.6,40.3c0,2.1-1,3.4-2.5,3.4c-1.6,0-2.4-1.3-2.4-3.4s0.9-3.4,2.5-3.4C44.7,36.9,45.7,38.2,45.6,40.3
			 M43.1,34.9c-2.4,0-4.9,1.7-4.9,5.4s2.5,5.4,4.9,5.4S48,44,48,40.3S45.6,34.9,43.1,34.9"/>
		<path class="st1" d="M56.3,40.3c0,2.3-0.8,3.2-3,3.2h-1v-6.4h1C55.5,37.1,56.3,38,56.3,40.3 M53.2,35.1H50v10.4h3.2
			c2.5,0,5.6-0.9,5.6-5.2C58.8,36.9,56.8,35.1,53.2,35.1"/>
		<polygon class="st1" points="63.2,35.1 60.8,35.1 60.8,45.5 67.7,45.5 67.7,43.5 63.2,43.5 		"/>
		<polygon class="st1" points="74,35.1 71.7,39 69.4,35.1 66.9,35.1 70.5,41.1 70.5,45.5 72.9,45.5 72.9,41.1 76.5,35.1 		"/>
	</g>
</g>
</svg>
